<svg xmlns="http://www.w3.org/2000/svg" width="560" height="320" viewBox="0 0 560 320" font-family="sans-serif">
<defs><marker id="ah" markerWidth="8" markerHeight="8" refX="5" refY="3.5" orient="auto"><path d="M0,0 L6,3.5 L0,7 z" fill="#6b7079"/></marker></defs>
<rect x="0.5" y="0.5" width="559" height="319" rx="12" fill="#ffffff" stroke="#e6e6e6"/>
<circle cx="160" cy="160" r="150" fill="#454a52"/>
<circle cx="160" cy="160" r="140" fill="#cdbb92"/>
<circle cx="160" cy="160" r="36" fill="#f7f2ea"><animate attributeName="r" values="36;138;138" keyTimes="0;0.82;1" dur="6s" repeatCount="indefinite"/></circle>
<circle cx="160" cy="160" r="36" fill="none" stroke="#e2683c" stroke-width="6"><animate attributeName="r" values="36;138;138" keyTimes="0;0.82;1" dur="6s" repeatCount="indefinite"/></circle>
<circle cx="160" cy="160" r="36" fill="#ffffff"/>
<g transform="translate(160 160) rotate(0.0)"><g><animateTransform attributeName="transform" type="translate" values="16 0;118 0;118 0" keyTimes="0;0.82;1" dur="6s" repeatCount="indefinite"/><line x1="0" y1="0" x2="20" y2="0" stroke="#6b7079" stroke-width="2" marker-end="url(#ah)"/></g></g>
<g transform="translate(160 160) rotate(22.5)"><g><animateTransform attributeName="transform" type="translate" values="16 0;118 0;118 0" keyTimes="0;0.82;1" dur="6s" repeatCount="indefinite"/><line x1="0" y1="0" x2="20" y2="0" stroke="#6b7079" stroke-width="2" marker-end="url(#ah)"/></g></g>
<g transform="translate(160 160) rotate(45.0)"><g><animateTransform attributeName="transform" type="translate" values="16 0;118 0;118 0" keyTimes="0;0.82;1" dur="6s" repeatCount="indefinite"/><line x1="0" y1="0" x2="20" y2="0" stroke="#6b7079" stroke-width="2" marker-end="url(#ah)"/></g></g>
<g transform="translate(160 160) rotate(67.5)"><g><animateTransform attributeName="transform" type="translate" values="16 0;118 0;118 0" keyTimes="0;0.82;1" dur="6s" repeatCount="indefinite"/><line x1="0" y1="0" x2="20" y2="0" stroke="#6b7079" stroke-width="2" marker-end="url(#ah)"/></g></g>
<g transform="translate(160 160) rotate(90.0)"><g><animateTransform attributeName="transform" type="translate" values="16 0;118 0;118 0" keyTimes="0;0.82;1" dur="6s" repeatCount="indefinite"/><line x1="0" y1="0" x2="20" y2="0" stroke="#6b7079" stroke-width="2" marker-end="url(#ah)"/></g></g>
<g transform="translate(160 160) rotate(112.5)"><g><animateTransform attributeName="transform" type="translate" values="16 0;118 0;118 0" keyTimes="0;0.82;1" dur="6s" repeatCount="indefinite"/><line x1="0" y1="0" x2="20" y2="0" stroke="#6b7079" stroke-width="2" marker-end="url(#ah)"/></g></g>
<g transform="translate(160 160) rotate(135.0)"><g><animateTransform attributeName="transform" type="translate" values="16 0;118 0;118 0" keyTimes="0;0.82;1" dur="6s" repeatCount="indefinite"/><line x1="0" y1="0" x2="20" y2="0" stroke="#6b7079" stroke-width="2" marker-end="url(#ah)"/></g></g>
<g transform="translate(160 160) rotate(157.5)"><g><animateTransform attributeName="transform" type="translate" values="16 0;118 0;118 0" keyTimes="0;0.82;1" dur="6s" repeatCount="indefinite"/><line x1="0" y1="0" x2="20" y2="0" stroke="#6b7079" stroke-width="2" marker-end="url(#ah)"/></g></g>
<g transform="translate(160 160) rotate(180.0)"><g><animateTransform attributeName="transform" type="translate" values="16 0;118 0;118 0" keyTimes="0;0.82;1" dur="6s" repeatCount="indefinite"/><line x1="0" y1="0" x2="20" y2="0" stroke="#6b7079" stroke-width="2" marker-end="url(#ah)"/></g></g>
<g transform="translate(160 160) rotate(202.5)"><g><animateTransform attributeName="transform" type="translate" values="16 0;118 0;118 0" keyTimes="0;0.82;1" dur="6s" repeatCount="indefinite"/><line x1="0" y1="0" x2="20" y2="0" stroke="#6b7079" stroke-width="2" marker-end="url(#ah)"/></g></g>
<g transform="translate(160 160) rotate(225.0)"><g><animateTransform attributeName="transform" type="translate" values="16 0;118 0;118 0" keyTimes="0;0.82;1" dur="6s" repeatCount="indefinite"/><line x1="0" y1="0" x2="20" y2="0" stroke="#6b7079" stroke-width="2" marker-end="url(#ah)"/></g></g>
<g transform="translate(160 160) rotate(247.5)"><g><animateTransform attributeName="transform" type="translate" values="16 0;118 0;118 0" keyTimes="0;0.82;1" dur="6s" repeatCount="indefinite"/><line x1="0" y1="0" x2="20" y2="0" stroke="#6b7079" stroke-width="2" marker-end="url(#ah)"/></g></g>
<g transform="translate(160 160) rotate(270.0)"><g><animateTransform attributeName="transform" type="translate" values="16 0;118 0;118 0" keyTimes="0;0.82;1" dur="6s" repeatCount="indefinite"/><line x1="0" y1="0" x2="20" y2="0" stroke="#6b7079" stroke-width="2" marker-end="url(#ah)"/></g></g>
<g transform="translate(160 160) rotate(292.5)"><g><animateTransform attributeName="transform" type="translate" values="16 0;118 0;118 0" keyTimes="0;0.82;1" dur="6s" repeatCount="indefinite"/><line x1="0" y1="0" x2="20" y2="0" stroke="#6b7079" stroke-width="2" marker-end="url(#ah)"/></g></g>
<g transform="translate(160 160) rotate(315.0)"><g><animateTransform attributeName="transform" type="translate" values="16 0;118 0;118 0" keyTimes="0;0.82;1" dur="6s" repeatCount="indefinite"/><line x1="0" y1="0" x2="20" y2="0" stroke="#6b7079" stroke-width="2" marker-end="url(#ah)"/></g></g>
<g transform="translate(160 160) rotate(337.5)"><g><animateTransform attributeName="transform" type="translate" values="16 0;118 0;118 0" keyTimes="0;0.82;1" dur="6s" repeatCount="indefinite"/><line x1="0" y1="0" x2="20" y2="0" stroke="#6b7079" stroke-width="2" marker-end="url(#ah)"/></g></g>
<rect x="344" y="70" width="20" height="20" rx="3" fill="#cdbb92" stroke="#bbbbbb"/>
<text x="374" y="84" font-size="13" fill="#3a3f47">Propellant grain</text>
<rect x="344" y="116" width="20" height="20" rx="3" fill="#454a52" stroke="#bbbbbb"/>
<text x="374" y="130" font-size="13" fill="#3a3f47">Inhibited surface (casing)</text>
<line x1="344" y1="172" x2="364" y2="172" stroke="#e2683c" stroke-width="5"/>
<text x="374" y="176" font-size="13" fill="#3a3f47">Burning surface</text>
<line x1="344" y1="218" x2="362" y2="218" stroke="#6b7079" stroke-width="2" marker-end="url(#ah)"/>
<text x="374" y="222" font-size="13" fill="#3a3f47">Direction of regression</text>
</svg>
