<?xml version="1.0" encoding="iso-8859-1"?>
<!-- Generator: Adobe Illustrator 18.0.0, SVG Export Plug-In . SVG Version: 6.00 Build 0)  -->
<!DOCTYPE svg PUBLIC "-//W3C//DTD SVG 1.1//EN" "http://www.w3.org/Graphics/SVG/1.1/DTD/svg11.dtd">
<svg version="1.1" id="Capa_1" xmlns="http://www.w3.org/2000/svg" xmlns:xlink="http://www.w3.org/1999/xlink" x="0px" y="0px"
	 viewBox="0 0 292.997 292.997" style="enable-background:new 0 0 292.997 292.997;" xml:space="preserve">
<g>
	<path d="M146.499,0C70.112,0,7.967,62.145,7.967,138.531v13.197c0,6.75,5.491,12.241,12.241,12.241
		c0.467,0,0.927-0.041,1.384-0.093l118.34,126.275c1.702,1.815,4.079,2.846,6.567,2.846s4.865-1.03,6.567-2.846L271.45,163.828
		c0.578,0.087,1.164,0.141,1.76,0.141c6.518,0,11.82-5.303,11.82-11.82v-13.618C285.03,62.145,222.885,0,146.499,0z M96.504,162.539
		l28.451,85.309l-89.938-95.969c6.319-7.181,15.485-11.445,25.25-11.445c11.461,0,22.026,5.76,28.262,15.41
		C90.488,158.875,93.278,161.172,96.504,162.539z M114.673,160.125c1.503-1.189,2.825-2.624,3.896-4.283
		c6.236-9.649,16.801-15.41,28.262-15.41c11.46,0,22.025,5.761,28.261,15.409c1.079,1.67,2.412,3.114,3.928,4.308l-32.449,95.623
		L114.673,160.125z M197.228,162.51c3.197-1.371,5.961-3.656,7.906-6.667c6.236-9.649,16.801-15.41,28.262-15.41
		c9.612,0,18.619,4.123,24.921,11.086l-89.919,95.948L197.228,162.51z M146.499,18c65.232,0,118.527,52.085,120.476,116.853
		c-9.213-7.887-21.068-12.419-33.579-12.419c-17.537,0-33.703,8.777-43.282,23.49c-9.579-14.712-25.745-23.49-43.282-23.49
		c-17.538,0-33.704,8.777-43.283,23.49c-9.578-14.712-25.745-23.49-43.282-23.49c-12.806,0-24.949,4.765-34.261,13.021
		C27.646,70.411,81.068,18,146.499,18z"/>
</g>
<g>
</g>
<g>
</g>
<g>
</g>
<g>
</g>
<g>
</g>
<g>
</g>
<g>
</g>
<g>
</g>
<g>
</g>
<g>
</g>
<g>
</g>
<g>
</g>
<g>
</g>
<g>
</g>
<g>
</g>
</svg>
