<?xml version="1.0" encoding="iso-8859-1"?>
<!-- Generator: Adobe Illustrator 19.0.0, SVG Export Plug-In . SVG Version: 6.00 Build 0)  -->
<svg version="1.1" id="Layer_1" xmlns="http://www.w3.org/2000/svg" xmlns:xlink="http://www.w3.org/1999/xlink" x="0px" y="0px"
	 viewBox="0 0 512 512" style="enable-background:new 0 0 512 512;" xml:space="preserve">
<g>
	<g>
		<path d="M75.232,0C33.749,0,0,33.749,0,75.232c0,34.669,23.58,63.921,55.54,72.6v181.696c0,3.954,3.466,6.984,7.391,6.504
			c8.183-1.003,16.417-1.003,24.602,0c3.925,0.481,7.391-2.548,7.391-6.504V147.833c31.961-8.679,55.54-37.93,55.54-72.6
			C150.465,33.749,116.715,0,75.232,0z"/>
	</g>
</g>
<g>
	<g>
		<path d="M456.46,364.167V182.472c0-3.954-3.466-6.984-7.391-6.504c-8.183,1.003-16.417,1.003-24.602,0
			c-3.925-0.48-7.391,2.548-7.391,6.504v181.696c-31.961,8.679-55.54,37.93-55.54,72.6c0,41.484,33.749,75.232,75.232,75.232
			S512,478.251,512,436.768C512,402.099,488.42,372.846,456.46,364.167z"/>
	</g>
</g>
<g>
	<g>
		<path d="M336.032,449.069c-1.003-8.183-1.003-16.417,0-24.602c0.479-3.924-2.549-7.391-6.505-7.391H147.833
			c-8.679-31.961-37.93-55.54-72.6-55.54C33.749,361.535,0,395.285,0,436.768C0,478.251,33.749,512,75.232,512
			c34.67,0,63.921-23.58,72.6-55.54h181.696C333.483,456.46,336.513,452.994,336.032,449.069z"/>
	</g>
</g>
<g>
	<g>
		<path d="M436.768,0c-34.67,0-63.921,23.58-72.6,55.54H182.472c-3.954,0-6.984,3.466-6.504,7.391
			c1.003,8.183,1.003,16.417,0,24.602c-0.48,3.924,2.549,7.391,6.504,7.391h181.696c8.679,31.961,37.93,55.54,72.6,55.54
			c41.484,0,75.232-33.75,75.232-75.232C512,33.749,478.251,0,436.768,0z"/>
	</g>
</g>
<g>
</g>
<g>
</g>
<g>
</g>
<g>
</g>
<g>
</g>
<g>
</g>
<g>
</g>
<g>
</g>
<g>
</g>
<g>
</g>
<g>
</g>
<g>
</g>
<g>
</g>
<g>
</g>
<g>
</g>
</svg>
