<?xml version="1.0" encoding="iso-8859-1"?>
<!-- Generator: Adobe Illustrator 19.0.0, SVG Export Plug-In . SVG Version: 6.00 Build 0)  -->
<svg version="1.1" id="Layer_1" xmlns="http://www.w3.org/2000/svg" xmlns:xlink="http://www.w3.org/1999/xlink" x="0px" y="0px"
	 viewBox="0 0 459 459" style="enable-background:new 0 0 459 459;" xml:space="preserve">
<g id="XMLID_1315_">
	<g>
		<g>
			<ellipse cx="229.5" cy="161" rx="71.5" ry="84"/>
			<path d="M229.5,0C102.686,0,0,102.77,0,229.5C0,355.823,102.191,459,229.5,459C355.989,459,459,356.656,459,229.5
				C459,102.82,356.396,0,229.5,0z M375.867,349.884c-8.967-44.692-39.664-82.044-81.079-101.501
				C276.854,265.312,253.919,275,229.5,275c-25.083,0-47.968-10.183-65.483-26.801c-41.512,19.292-72.053,56.497-80.925,101.636
				c-8.407-10.191-15.651-21.136-21.681-32.664c9.144-24.053,23.819-46.017,43.356-64.361
				c12.145-11.402,25.694-20.942,40.251-28.489C133.958,205.726,128,183.829,128,161c0-63.433,45.618-114,101.5-114
				C285.492,47,331,97.686,331,161c0,22.859-5.973,44.784-17.06,63.395c38.355,19.914,68.383,52.943,83.614,92.846
				C391.521,328.762,384.275,339.699,375.867,349.884z"/>
		</g>
	</g>
</g>
<g>
</g>
<g>
</g>
<g>
</g>
<g>
</g>
<g>
</g>
<g>
</g>
<g>
</g>
<g>
</g>
<g>
</g>
<g>
</g>
<g>
</g>
<g>
</g>
<g>
</g>
<g>
</g>
<g>
</g>
</svg>
