<svg xmlns="http://www.w3.org/2000/svg" width="286" height="286" viewBox="0 0 286 286" shape-rendering="crispEdges">
<rect x="0" y="0" width="22" height="22" fill="#eceff1" stroke="#ffffff" stroke-width="1.5"/>
<rect x="22" y="0" width="22" height="22" fill="#eceff1" stroke="#ffffff" stroke-width="1.5"/>
<rect x="44" y="0" width="22" height="22" fill="#eceff1" stroke="#ffffff" stroke-width="1.5"/>
<rect x="66" y="0" width="22" height="22" fill="#eceff1" stroke="#ffffff" stroke-width="1.5"/>
<rect x="88" y="0" width="22" height="22" fill="#eceff1" stroke="#ffffff" stroke-width="1.5"/>
<rect x="110" y="0" width="22" height="22" fill="#eceff1" stroke="#ffffff" stroke-width="1.5"/>
<rect x="132" y="0" width="22" height="22" fill="#cdbb92" stroke="#ffffff" stroke-width="1.5"/>
<rect x="154" y="0" width="22" height="22" fill="#eceff1" stroke="#ffffff" stroke-width="1.5"/>
<rect x="176" y="0" width="22" height="22" fill="#eceff1" stroke="#ffffff" stroke-width="1.5"/>
<rect x="198" y="0" width="22" height="22" fill="#eceff1" stroke="#ffffff" stroke-width="1.5"/>
<rect x="220" y="0" width="22" height="22" fill="#eceff1" stroke="#ffffff" stroke-width="1.5"/>
<rect x="242" y="0" width="22" height="22" fill="#eceff1" stroke="#ffffff" stroke-width="1.5"/>
<rect x="264" y="0" width="22" height="22" fill="#eceff1" stroke="#ffffff" stroke-width="1.5"/>
<rect x="0" y="22" width="22" height="22" fill="#eceff1" stroke="#ffffff" stroke-width="1.5"/>
<rect x="22" y="22" width="22" height="22" fill="#eceff1" stroke="#ffffff" stroke-width="1.5"/>
<rect x="44" y="22" width="22" height="22" fill="#eceff1" stroke="#ffffff" stroke-width="1.5"/>
<rect x="66" y="22" width="22" height="22" fill="#cdbb92" stroke="#ffffff" stroke-width="1.5"/>
<rect x="88" y="22" width="22" height="22" fill="#cdbb92" stroke="#ffffff" stroke-width="1.5"/>
<rect x="110" y="22" width="22" height="22" fill="#cdbb92" stroke="#ffffff" stroke-width="1.5"/>
<rect x="132" y="22" width="22" height="22" fill="#cdbb92" stroke="#ffffff" stroke-width="1.5"/>
<rect x="154" y="22" width="22" height="22" fill="#cdbb92" stroke="#ffffff" stroke-width="1.5"/>
<rect x="176" y="22" width="22" height="22" fill="#cdbb92" stroke="#ffffff" stroke-width="1.5"/>
<rect x="198" y="22" width="22" height="22" fill="#cdbb92" stroke="#ffffff" stroke-width="1.5"/>
<rect x="220" y="22" width="22" height="22" fill="#eceff1" stroke="#ffffff" stroke-width="1.5"/>
<rect x="242" y="22" width="22" height="22" fill="#eceff1" stroke="#ffffff" stroke-width="1.5"/>
<rect x="264" y="22" width="22" height="22" fill="#eceff1" stroke="#ffffff" stroke-width="1.5"/>
<rect x="0" y="44" width="22" height="22" fill="#eceff1" stroke="#ffffff" stroke-width="1.5"/>
<rect x="22" y="44" width="22" height="22" fill="#eceff1" stroke="#ffffff" stroke-width="1.5"/>
<rect x="44" y="44" width="22" height="22" fill="#cdbb92" stroke="#ffffff" stroke-width="1.5"/>
<rect x="66" y="44" width="22" height="22" fill="#cdbb92" stroke="#ffffff" stroke-width="1.5"/>
<rect x="88" y="44" width="22" height="22" fill="#cdbb92" stroke="#ffffff" stroke-width="1.5"/>
<rect x="110" y="44" width="22" height="22" fill="#cdbb92" stroke="#ffffff" stroke-width="1.5"/>
<rect x="132" y="44" width="22" height="22" fill="#cdbb92" stroke="#ffffff" stroke-width="1.5"/>
<rect x="154" y="44" width="22" height="22" fill="#cdbb92" stroke="#ffffff" stroke-width="1.5"/>
<rect x="176" y="44" width="22" height="22" fill="#cdbb92" stroke="#ffffff" stroke-width="1.5"/>
<rect x="198" y="44" width="22" height="22" fill="#cdbb92" stroke="#ffffff" stroke-width="1.5"/>
<rect x="220" y="44" width="22" height="22" fill="#cdbb92" stroke="#ffffff" stroke-width="1.5"/>
<rect x="242" y="44" width="22" height="22" fill="#eceff1" stroke="#ffffff" stroke-width="1.5"/>
<rect x="264" y="44" width="22" height="22" fill="#eceff1" stroke="#ffffff" stroke-width="1.5"/>
<rect x="0" y="66" width="22" height="22" fill="#eceff1" stroke="#ffffff" stroke-width="1.5"/>
<rect x="22" y="66" width="22" height="22" fill="#cdbb92" stroke="#ffffff" stroke-width="1.5"/>
<rect x="44" y="66" width="22" height="22" fill="#cdbb92" stroke="#ffffff" stroke-width="1.5"/>
<rect x="66" y="66" width="22" height="22" fill="#cdbb92" stroke="#ffffff" stroke-width="1.5"/>
<rect x="88" y="66" width="22" height="22" fill="#e2683c" stroke="#ffffff" stroke-width="1.5"/>
<rect x="110" y="66" width="22" height="22" fill="#e2683c" stroke="#ffffff" stroke-width="1.5"/>
<rect x="132" y="66" width="22" height="22" fill="#e2683c" stroke="#ffffff" stroke-width="1.5"/>
<rect x="154" y="66" width="22" height="22" fill="#e2683c" stroke="#ffffff" stroke-width="1.5"/>
<rect x="176" y="66" width="22" height="22" fill="#e2683c" stroke="#ffffff" stroke-width="1.5"/>
<rect x="198" y="66" width="22" height="22" fill="#cdbb92" stroke="#ffffff" stroke-width="1.5"/>
<rect x="220" y="66" width="22" height="22" fill="#cdbb92" stroke="#ffffff" stroke-width="1.5"/>
<rect x="242" y="66" width="22" height="22" fill="#cdbb92" stroke="#ffffff" stroke-width="1.5"/>
<rect x="264" y="66" width="22" height="22" fill="#eceff1" stroke="#ffffff" stroke-width="1.5"/>
<rect x="0" y="88" width="22" height="22" fill="#eceff1" stroke="#ffffff" stroke-width="1.5"/>
<rect x="22" y="88" width="22" height="22" fill="#cdbb92" stroke="#ffffff" stroke-width="1.5"/>
<rect x="44" y="88" width="22" height="22" fill="#cdbb92" stroke="#ffffff" stroke-width="1.5"/>
<rect x="66" y="88" width="22" height="22" fill="#e2683c" stroke="#ffffff" stroke-width="1.5"/>
<rect x="88" y="88" width="22" height="22" fill="#e2683c" stroke="#ffffff" stroke-width="1.5"/>
<rect x="110" y="88" width="22" height="22" fill="#e2683c" stroke="#ffffff" stroke-width="1.5"/>
<rect x="132" y="88" width="22" height="22" fill="#e2683c" stroke="#ffffff" stroke-width="1.5"/>
<rect x="154" y="88" width="22" height="22" fill="#e2683c" stroke="#ffffff" stroke-width="1.5"/>
<rect x="176" y="88" width="22" height="22" fill="#e2683c" stroke="#ffffff" stroke-width="1.5"/>
<rect x="198" y="88" width="22" height="22" fill="#e2683c" stroke="#ffffff" stroke-width="1.5"/>
<rect x="220" y="88" width="22" height="22" fill="#cdbb92" stroke="#ffffff" stroke-width="1.5"/>
<rect x="242" y="88" width="22" height="22" fill="#cdbb92" stroke="#ffffff" stroke-width="1.5"/>
<rect x="264" y="88" width="22" height="22" fill="#eceff1" stroke="#ffffff" stroke-width="1.5"/>
<rect x="0" y="110" width="22" height="22" fill="#eceff1" stroke="#ffffff" stroke-width="1.5"/>
<rect x="22" y="110" width="22" height="22" fill="#cdbb92" stroke="#ffffff" stroke-width="1.5"/>
<rect x="44" y="110" width="22" height="22" fill="#cdbb92" stroke="#ffffff" stroke-width="1.5"/>
<rect x="66" y="110" width="22" height="22" fill="#e2683c" stroke="#ffffff" stroke-width="1.5"/>
<rect x="88" y="110" width="22" height="22" fill="#e2683c" stroke="#ffffff" stroke-width="1.5"/>
<rect x="110" y="110" width="22" height="22" fill="#e2683c" stroke="#ffffff" stroke-width="1.5"/>
<rect x="132" y="110" width="22" height="22" fill="#e2683c" stroke="#ffffff" stroke-width="1.5"/>
<rect x="154" y="110" width="22" height="22" fill="#e2683c" stroke="#ffffff" stroke-width="1.5"/>
<rect x="176" y="110" width="22" height="22" fill="#e2683c" stroke="#ffffff" stroke-width="1.5"/>
<rect x="198" y="110" width="22" height="22" fill="#e2683c" stroke="#ffffff" stroke-width="1.5"/>
<rect x="220" y="110" width="22" height="22" fill="#cdbb92" stroke="#ffffff" stroke-width="1.5"/>
<rect x="242" y="110" width="22" height="22" fill="#cdbb92" stroke="#ffffff" stroke-width="1.5"/>
<rect x="264" y="110" width="22" height="22" fill="#eceff1" stroke="#ffffff" stroke-width="1.5"/>
<rect x="0" y="132" width="22" height="22" fill="#cdbb92" stroke="#ffffff" stroke-width="1.5"/>
<rect x="22" y="132" width="22" height="22" fill="#cdbb92" stroke="#ffffff" stroke-width="1.5"/>
<rect x="44" y="132" width="22" height="22" fill="#cdbb92" stroke="#ffffff" stroke-width="1.5"/>
<rect x="66" y="132" width="22" height="22" fill="#e2683c" stroke="#ffffff" stroke-width="1.5"/>
<rect x="88" y="132" width="22" height="22" fill="#e2683c" stroke="#ffffff" stroke-width="1.5"/>
<rect x="110" y="132" width="22" height="22" fill="#e2683c" stroke="#ffffff" stroke-width="1.5"/>
<rect x="132" y="132" width="22" height="22" fill="#e2683c" stroke="#ffffff" stroke-width="1.5"/>
<rect x="154" y="132" width="22" height="22" fill="#e2683c" stroke="#ffffff" stroke-width="1.5"/>
<rect x="176" y="132" width="22" height="22" fill="#e2683c" stroke="#ffffff" stroke-width="1.5"/>
<rect x="198" y="132" width="22" height="22" fill="#e2683c" stroke="#ffffff" stroke-width="1.5"/>
<rect x="220" y="132" width="22" height="22" fill="#cdbb92" stroke="#ffffff" stroke-width="1.5"/>
<rect x="242" y="132" width="22" height="22" fill="#cdbb92" stroke="#ffffff" stroke-width="1.5"/>
<rect x="264" y="132" width="22" height="22" fill="#cdbb92" stroke="#ffffff" stroke-width="1.5"/>
<rect x="0" y="154" width="22" height="22" fill="#eceff1" stroke="#ffffff" stroke-width="1.5"/>
<rect x="22" y="154" width="22" height="22" fill="#cdbb92" stroke="#ffffff" stroke-width="1.5"/>
<rect x="44" y="154" width="22" height="22" fill="#cdbb92" stroke="#ffffff" stroke-width="1.5"/>
<rect x="66" y="154" width="22" height="22" fill="#e2683c" stroke="#ffffff" stroke-width="1.5"/>
<rect x="88" y="154" width="22" height="22" fill="#e2683c" stroke="#ffffff" stroke-width="1.5"/>
<rect x="110" y="154" width="22" height="22" fill="#e2683c" stroke="#ffffff" stroke-width="1.5"/>
<rect x="132" y="154" width="22" height="22" fill="#e2683c" stroke="#ffffff" stroke-width="1.5"/>
<rect x="154" y="154" width="22" height="22" fill="#e2683c" stroke="#ffffff" stroke-width="1.5"/>
<rect x="176" y="154" width="22" height="22" fill="#e2683c" stroke="#ffffff" stroke-width="1.5"/>
<rect x="198" y="154" width="22" height="22" fill="#e2683c" stroke="#ffffff" stroke-width="1.5"/>
<rect x="220" y="154" width="22" height="22" fill="#cdbb92" stroke="#ffffff" stroke-width="1.5"/>
<rect x="242" y="154" width="22" height="22" fill="#cdbb92" stroke="#ffffff" stroke-width="1.5"/>
<rect x="264" y="154" width="22" height="22" fill="#eceff1" stroke="#ffffff" stroke-width="1.5"/>
<rect x="0" y="176" width="22" height="22" fill="#eceff1" stroke="#ffffff" stroke-width="1.5"/>
<rect x="22" y="176" width="22" height="22" fill="#cdbb92" stroke="#ffffff" stroke-width="1.5"/>
<rect x="44" y="176" width="22" height="22" fill="#cdbb92" stroke="#ffffff" stroke-width="1.5"/>
<rect x="66" y="176" width="22" height="22" fill="#e2683c" stroke="#ffffff" stroke-width="1.5"/>
<rect x="88" y="176" width="22" height="22" fill="#e2683c" stroke="#ffffff" stroke-width="1.5"/>
<rect x="110" y="176" width="22" height="22" fill="#e2683c" stroke="#ffffff" stroke-width="1.5"/>
<rect x="132" y="176" width="22" height="22" fill="#e2683c" stroke="#ffffff" stroke-width="1.5"/>
<rect x="154" y="176" width="22" height="22" fill="#e2683c" stroke="#ffffff" stroke-width="1.5"/>
<rect x="176" y="176" width="22" height="22" fill="#e2683c" stroke="#ffffff" stroke-width="1.5"/>
<rect x="198" y="176" width="22" height="22" fill="#e2683c" stroke="#ffffff" stroke-width="1.5"/>
<rect x="220" y="176" width="22" height="22" fill="#cdbb92" stroke="#ffffff" stroke-width="1.5"/>
<rect x="242" y="176" width="22" height="22" fill="#cdbb92" stroke="#ffffff" stroke-width="1.5"/>
<rect x="264" y="176" width="22" height="22" fill="#eceff1" stroke="#ffffff" stroke-width="1.5"/>
<rect x="0" y="198" width="22" height="22" fill="#eceff1" stroke="#ffffff" stroke-width="1.5"/>
<rect x="22" y="198" width="22" height="22" fill="#cdbb92" stroke="#ffffff" stroke-width="1.5"/>
<rect x="44" y="198" width="22" height="22" fill="#cdbb92" stroke="#ffffff" stroke-width="1.5"/>
<rect x="66" y="198" width="22" height="22" fill="#cdbb92" stroke="#ffffff" stroke-width="1.5"/>
<rect x="88" y="198" width="22" height="22" fill="#e2683c" stroke="#ffffff" stroke-width="1.5"/>
<rect x="110" y="198" width="22" height="22" fill="#e2683c" stroke="#ffffff" stroke-width="1.5"/>
<rect x="132" y="198" width="22" height="22" fill="#e2683c" stroke="#ffffff" stroke-width="1.5"/>
<rect x="154" y="198" width="22" height="22" fill="#e2683c" stroke="#ffffff" stroke-width="1.5"/>
<rect x="176" y="198" width="22" height="22" fill="#e2683c" stroke="#ffffff" stroke-width="1.5"/>
<rect x="198" y="198" width="22" height="22" fill="#cdbb92" stroke="#ffffff" stroke-width="1.5"/>
<rect x="220" y="198" width="22" height="22" fill="#cdbb92" stroke="#ffffff" stroke-width="1.5"/>
<rect x="242" y="198" width="22" height="22" fill="#cdbb92" stroke="#ffffff" stroke-width="1.5"/>
<rect x="264" y="198" width="22" height="22" fill="#eceff1" stroke="#ffffff" stroke-width="1.5"/>
<rect x="0" y="220" width="22" height="22" fill="#eceff1" stroke="#ffffff" stroke-width="1.5"/>
<rect x="22" y="220" width="22" height="22" fill="#eceff1" stroke="#ffffff" stroke-width="1.5"/>
<rect x="44" y="220" width="22" height="22" fill="#cdbb92" stroke="#ffffff" stroke-width="1.5"/>
<rect x="66" y="220" width="22" height="22" fill="#cdbb92" stroke="#ffffff" stroke-width="1.5"/>
<rect x="88" y="220" width="22" height="22" fill="#cdbb92" stroke="#ffffff" stroke-width="1.5"/>
<rect x="110" y="220" width="22" height="22" fill="#cdbb92" stroke="#ffffff" stroke-width="1.5"/>
<rect x="132" y="220" width="22" height="22" fill="#cdbb92" stroke="#ffffff" stroke-width="1.5"/>
<rect x="154" y="220" width="22" height="22" fill="#cdbb92" stroke="#ffffff" stroke-width="1.5"/>
<rect x="176" y="220" width="22" height="22" fill="#cdbb92" stroke="#ffffff" stroke-width="1.5"/>
<rect x="198" y="220" width="22" height="22" fill="#cdbb92" stroke="#ffffff" stroke-width="1.5"/>
<rect x="220" y="220" width="22" height="22" fill="#cdbb92" stroke="#ffffff" stroke-width="1.5"/>
<rect x="242" y="220" width="22" height="22" fill="#eceff1" stroke="#ffffff" stroke-width="1.5"/>
<rect x="264" y="220" width="22" height="22" fill="#eceff1" stroke="#ffffff" stroke-width="1.5"/>
<rect x="0" y="242" width="22" height="22" fill="#eceff1" stroke="#ffffff" stroke-width="1.5"/>
<rect x="22" y="242" width="22" height="22" fill="#eceff1" stroke="#ffffff" stroke-width="1.5"/>
<rect x="44" y="242" width="22" height="22" fill="#eceff1" stroke="#ffffff" stroke-width="1.5"/>
<rect x="66" y="242" width="22" height="22" fill="#cdbb92" stroke="#ffffff" stroke-width="1.5"/>
<rect x="88" y="242" width="22" height="22" fill="#cdbb92" stroke="#ffffff" stroke-width="1.5"/>
<rect x="110" y="242" width="22" height="22" fill="#cdbb92" stroke="#ffffff" stroke-width="1.5"/>
<rect x="132" y="242" width="22" height="22" fill="#cdbb92" stroke="#ffffff" stroke-width="1.5"/>
<rect x="154" y="242" width="22" height="22" fill="#cdbb92" stroke="#ffffff" stroke-width="1.5"/>
<rect x="176" y="242" width="22" height="22" fill="#cdbb92" stroke="#ffffff" stroke-width="1.5"/>
<rect x="198" y="242" width="22" height="22" fill="#cdbb92" stroke="#ffffff" stroke-width="1.5"/>
<rect x="220" y="242" width="22" height="22" fill="#eceff1" stroke="#ffffff" stroke-width="1.5"/>
<rect x="242" y="242" width="22" height="22" fill="#eceff1" stroke="#ffffff" stroke-width="1.5"/>
<rect x="264" y="242" width="22" height="22" fill="#eceff1" stroke="#ffffff" stroke-width="1.5"/>
<rect x="0" y="264" width="22" height="22" fill="#eceff1" stroke="#ffffff" stroke-width="1.5"/>
<rect x="22" y="264" width="22" height="22" fill="#eceff1" stroke="#ffffff" stroke-width="1.5"/>
<rect x="44" y="264" width="22" height="22" fill="#eceff1" stroke="#ffffff" stroke-width="1.5"/>
<rect x="66" y="264" width="22" height="22" fill="#eceff1" stroke="#ffffff" stroke-width="1.5"/>
<rect x="88" y="264" width="22" height="22" fill="#eceff1" stroke="#ffffff" stroke-width="1.5"/>
<rect x="110" y="264" width="22" height="22" fill="#eceff1" stroke="#ffffff" stroke-width="1.5"/>
<rect x="132" y="264" width="22" height="22" fill="#cdbb92" stroke="#ffffff" stroke-width="1.5"/>
<rect x="154" y="264" width="22" height="22" fill="#eceff1" stroke="#ffffff" stroke-width="1.5"/>
<rect x="176" y="264" width="22" height="22" fill="#eceff1" stroke="#ffffff" stroke-width="1.5"/>
<rect x="198" y="264" width="22" height="22" fill="#eceff1" stroke="#ffffff" stroke-width="1.5"/>
<rect x="220" y="264" width="22" height="22" fill="#eceff1" stroke="#ffffff" stroke-width="1.5"/>
<rect x="242" y="264" width="22" height="22" fill="#eceff1" stroke="#ffffff" stroke-width="1.5"/>
<rect x="264" y="264" width="22" height="22" fill="#eceff1" stroke="#ffffff" stroke-width="1.5"/>
<polyline points="190.8,209.0 209.0,190.8 212.0,187.0 222.9,165.0 222.9,143.0 222.9,121.0 212.0,99.0 209.0,95.2 190.8,77.0 187.0,74.0 165.0,63.1 143.0,63.1 121.0,63.1 99.0,74.0 95.2,77.0 77.0,95.2 74.0,99.0 63.1,121.0 63.1,143.0 63.1,165.0 74.0,187.0 77.0,190.8 95.2,209.0 99.0,212.0 121.0,222.9 143.0,222.9 165.0,222.9 187.0,212.0 190.8,209.0" fill="none" stroke="#1b1b1b" stroke-width="2.5" stroke-linejoin="round" stroke-linecap="round"/>
</svg>
