<?xml version="1.0" encoding="UTF-8" standalone="no"?>
<svg
   xmlns:dc="http://purl.org/dc/elements/1.1/"
   xmlns:cc="http://creativecommons.org/ns#"
   xmlns:rdf="http://www.w3.org/1999/02/22-rdf-syntax-ns#"
   xmlns:svg="http://www.w3.org/2000/svg"
   xmlns="http://www.w3.org/2000/svg"
   xmlns:sodipodi="http://sodipodi.sourceforge.net/DTD/sodipodi-0.dtd"
   xmlns:inkscape="http://www.inkscape.org/namespaces/inkscape"
   width="24px"
   height="24px"
   viewBox="0 0 24 24"
   version="1.1"
   id="svg6"
   sodipodi:docname="dashboard.svg"
   inkscape:version="1.0.2-2 (e86c870879, 2021-01-15)">
  <metadata
     id="metadata12">
    <rdf:RDF>
      <cc:Work
         rdf:about="">
        <dc:format>image/svg+xml</dc:format>
        <dc:type
           rdf:resource="http://purl.org/dc/dcmitype/StillImage" />
      </cc:Work>
    </rdf:RDF>
  </metadata>
  <defs
     id="defs10" />
  <sodipodi:namedview
     pagecolor="#ffffff"
     bordercolor="#666666"
     borderopacity="1"
     objecttolerance="10"
     gridtolerance="10"
     guidetolerance="10"
     inkscape:pageopacity="0"
     inkscape:pageshadow="2"
     inkscape:window-width="1920"
     inkscape:window-height="1001"
     id="namedview8"
     showgrid="false"
     inkscape:zoom="34.583333"
     inkscape:cx="12"
     inkscape:cy="12"
     inkscape:window-x="-9"
     inkscape:window-y="-9"
     inkscape:window-maximized="1"
     inkscape:current-layer="g4"
     inkscape:document-rotation="0" />
  <g
     stroke="none"
     stroke-width="1"
     fill="none"
     fill-rule="evenodd"
     id="g4">
    <path
       d="m 21.061274,15.27759 c 0.06725,0 0.133878,0.0027 0.199774,0.0079 l -0.199774,-0.0079 c 0.09148,0 0.181794,0.0049 0.270695,0.01458 0.04352,0.0047 0.08697,0.01059 0.13004,0.01758 0.021,0.0034 0.04142,0.007 0.06175,0.01082 0.04877,0.0092 0.09767,0.01993 0.146004,0.0321 0.0113,0.0029 0.02193,0.0056 0.03253,0.0084 1.053927,0.280646 1.830237,1.237488 1.830237,2.374687 0,1.357623 -1.106419,2.458193 -2.471256,2.458193 -1.364838,0 -2.471257,-1.10057 -2.471257,-2.458193 0,-0.952606 0.544739,-1.778654 1.341263,-2.186738 v 0 l 0.03777,-0.01895 c 0.03952,-0.0194 0.07963,-0.03778 0.12031,-0.0551 l -0.158082,0.07405 c 0.06766,-0.03466 0.137134,-0.06631 0.208246,-0.09477 0.0402,-0.01608 0.08063,-0.03104 0.121553,-0.04496 0.01926,-0.0066 0.03887,-0.01296 0.05859,-0.01912 0.03453,-0.01079 0.06911,-0.02077 0.104002,-0.03001 0.02687,-0.0071 0.05385,-0.01378 0.081,-0.01999 0.0398,-0.0091 0.08062,-0.01741 0.12179,-0.02468 0.01736,-0.0031 0.0347,-0.0059 0.05209,-0.0086 0.04849,-0.0075 0.09714,-0.01355 0.146204,-0.01819 0.01429,-0.0013 0.02859,-0.0026 0.04293,-0.0037 0.0637,-0.0049 0.128347,-0.0074 0.193583,-0.0074 z m -18.1225477,0 c 0.07113,0 0.1415587,0.003 0.2111652,0.0088 l -0.2111652,-0.0088 c 0.090111,0 0.1790947,0.0048 0.2667083,0.01415 0.045732,0.0049 0.091426,0.01105 0.1367062,0.01844 0.027173,0.0044 0.053686,0.0092 0.080048,0.01443 0.042966,0.0085 0.085622,0.01808 0.1278453,0.02877 0.022311,0.0057 0.044084,0.01149 0.065736,0.01761 0.063498,0.01793 0.126719,0.03861 0.1887579,0.06169 0.00557,0.0021 0.011394,0.0043 0.017208,0.0065 0.05506,0.02097 0.1089251,0.04372 0.1617726,0.06828 0.00803,0.0037 0.01595,0.0075 0.023847,0.01124 0.8300176,0.396802 1.4026266,1.240439 1.4026266,2.21711 0,1.357623 -1.1064192,2.458193 -2.4712565,2.458193 -1.3648372,0 -2.47125644,-1.10057 -2.47125644,-2.458193 0,-1.2219 0.89625844,-2.235575 2.07052164,-2.426038 0.016368,-0.0027 0.033056,-0.0052 0.049798,-0.0076 0.00739,-0.001 0.014637,-0.002 0.021898,-0.003 0.1075358,-0.01424 0.2174233,-0.0216 0.329039,-0.0216 z M 15.990049,11.180602 c 0.383861,0 0.695041,0.302657 0.695041,0.676003 0,0.104034 -0.02416,0.202579 -0.06733,0.290616 l 0.0016,0.0032 -3.623204,5.637756 c -0.06593,0.133396 -0.153704,0.254646 -0.258813,0.359363 -0.252432,0.251492 -0.604845,0.407626 -0.994753,0.407626 -0.767721,0 -1.390081,-0.605314 -1.390081,-1.352006 0,-0.336482 0.12638,-0.644254 0.335493,-0.880863 l 0.05546,-0.05707 -0.0054,-0.0046 4.800911,-4.922799 c 0.124331,-0.09752 0.280529,-0.157258 0.451072,-0.157258 z M 15.584847,6.2642169 c 3.350102,1.3265128 5.780172,4.4585391 6.084807,8.1883801 -0.197628,-0.03635 -0.400803,-0.0551 -0.60838,-0.0551 -0.406381,0 -0.795892,0.07185 -1.156395,0.20347 C 19.664313,11.617236 17.759261,9.1000659 15.113933,7.9679147 15.3704,7.5418375 15.533187,7.0523796 15.574464,6.5287463 l 0.01038,-0.2645294 0.0011,-0.00762 z M 8.8786837,6.0647674 c -0.00391,0.065986 -0.00589,0.1324875 -0.00589,0.1994495 0,0.5544223 0.1358737,1.0772774 0.3763051,1.5374147 C 6.3921987,8.8330313 4.2970719,11.447505 4.0344084,14.579979 3.6917027,14.461656 3.3227469,14.397497 2.9387263,14.397497 c -0.229424,0 -0.4534711,0.0229 -0.6699573,0.06653 0.2995911,-3.731824 2.7283172,-6.8676512 6.0776448,-8.2047669 l 0.2848566,-0.10856 z M 12.22882,3.8060241 c 1.256672,0 2.294263,0.9330391 2.450831,2.1406752 -0.0011,-5.004e-4 -7.35e-4,-3.906e-4 -3.54e-4,-2.807e-4 l 0.01274,0.1180547 c 0.0053,0.065882 0.008,0.1324975 0.008,0.1997436 0,0.066872 -0.0027,0.1331211 -0.008,0.1986454 l 0.008,-0.1986454 c 0,0.089582 -0.0048,0.1780455 -0.01421,0.2651471 -0.0047,0.043115 -0.01039,0.08567 -0.0172,0.1278665 -0.004,0.025038 -0.0085,0.049844 -0.01323,0.074519 -0.0075,0.038587 -0.01587,0.07695 -0.02515,0.1149671 -0.0061,0.024751 -0.01239,0.049033 -0.01908,0.073165 -0.05346,0.19264 -0.129912,0.3758021 -0.226226,0.5463757 -0.007,0.012451 -0.01417,0.024837 -0.02141,0.037154 -0.02604,0.044286 -0.0534,0.087639 -0.08205,0.1300559 -0.0062,0.00925 -0.01235,0.018144 -0.0185,0.026996 -0.445921,0.6415955 -1.190708,1.0619466 -2.034194,1.0619466 -1.021418,0 -1.898104,-0.6164012 -2.2746165,-1.4956437 -0.00974,-0.023519 -0.019448,-0.047138 -0.028791,-0.070939 -0.011144,-0.027779 -0.021427,-0.055534 -0.031216,-0.08352 C 9.8840365,7.0428801 9.8742205,7.0130501 9.8649705,6.9829731 9.8359675,6.8889261 9.8125575,6.7922008 9.7950745,6.693443 9.7919745,6.675841 9.7890045,6.657911 9.7862245,6.639916 9.7673085,6.5172181 9.7575295,6.3918537 9.7575295,6.2642173 c 0,-0.1433515 0.012336,-0.283837 0.036009,-0.4204635 0.0021,-0.012114 0.00427,-0.02411 0.00653,-0.036075 C 10.015246,4.6681998 11.020812,3.8060241 12.22882,3.8060241 Z"
       fill="#4285F4"
       fill-rule="nonzero"
       id="path2"
       style="fill:#000000;stroke-width:1.12248" />
  </g>
</svg>
