<?xml version="1.0" encoding="iso-8859-1"?>
<!-- Generator: Adobe Illustrator 18.0.0, SVG Export Plug-In . SVG Version: 6.00 Build 0)  -->
<!DOCTYPE svg PUBLIC "-//W3C//DTD SVG 1.1//EN" "http://www.w3.org/Graphics/SVG/1.1/DTD/svg11.dtd">
<svg version="1.1" id="Capa_1" xmlns="http://www.w3.org/2000/svg" xmlns:xlink="http://www.w3.org/1999/xlink" x="0px" y="0px"
	 viewBox="0 0 491.111 491.111" style="enable-background:new 0 0 491.111 491.111;" xml:space="preserve">
<g id="XMLID_117_">
	<path id="XMLID_121_" d="M310.082,245.553l51.883-51.877c3.686-3.678,5.755-8.669,5.755-13.885c0-5.208-2.069-10.206-5.755-13.885
		l-36.769-36.759c-7.662-7.664-20.105-7.664-27.768,0l-51.87,51.876l-51.885-51.876c-7.662-7.664-20.089-7.664-27.768,0
		l-36.753,36.759c-3.688,3.68-5.756,8.678-5.756,13.885c0,5.216,2.068,10.207,5.756,13.885l51.876,51.877l-51.884,51.875
		c-7.672,7.681-7.672,20.108,0,27.779l36.753,36.761c7.679,7.662,20.106,7.662,27.769,0l51.893-51.885l51.878,51.885
		c7.662,7.662,20.106,7.662,27.768,0l36.769-36.761c7.655-7.671,7.655-20.098,0-27.779L310.082,245.553z"/>
	<path id="XMLID_118_" d="M245.556,0C110.16,0,0,110.162,0,245.564c0,135.387,110.16,245.547,245.556,245.547
		c135.394,0,245.555-110.16,245.555-245.547C491.111,110.162,380.95,0,245.556,0z M245.556,438.198
		c-106.218,0-192.641-86.424-192.641-192.633c0-106.233,86.423-192.648,192.641-192.648c106.217,0,192.639,86.416,192.639,192.648
		C438.195,351.773,351.773,438.198,245.556,438.198z"/>
</g>
<g>
</g>
<g>
</g>
<g>
</g>
<g>
</g>
<g>
</g>
<g>
</g>
<g>
</g>
<g>
</g>
<g>
</g>
<g>
</g>
<g>
</g>
<g>
</g>
<g>
</g>
<g>
</g>
<g>
</g>
</svg>
