<?xml version="1.0" encoding="UTF-8" standalone="no"?>
<svg
   xmlns:dc="http://purl.org/dc/elements/1.1/"
   xmlns:cc="http://creativecommons.org/ns#"
   xmlns:rdf="http://www.w3.org/1999/02/22-rdf-syntax-ns#"
   xmlns:svg="http://www.w3.org/2000/svg"
   xmlns="http://www.w3.org/2000/svg"
   xmlns:sodipodi="http://sodipodi.sourceforge.net/DTD/sodipodi-0.dtd"
   xmlns:inkscape="http://www.inkscape.org/namespaces/inkscape"
   width="60px"
   height="57px"
   viewBox="0 0 60 57"
   version="1.1"
   id="svg3"
   sodipodi:docname="favicon.svg"
   inkscape:version="1.0.2-2 (e86c870879, 2021-01-15)">
  <metadata
     id="metadata9">
    <rdf:RDF>
      <cc:Work
         rdf:about="">
        <dc:format>image/svg+xml</dc:format>
        <dc:type
           rdf:resource="http://purl.org/dc/dcmitype/StillImage" />
      </cc:Work>
    </rdf:RDF>
  </metadata>
  <defs
     id="defs7">
    <filter
       inkscape:collect="always"
       style="color-interpolation-filters:sRGB"
       id="filter850"
       x="-1.0413519e-05"
       width="1.0000208"
       y="-1.1216274e-05"
       height="1.0000224">
      <feGaussianBlur
         inkscape:collect="always"
         stdDeviation="0.00025908695"
         id="feGaussianBlur852" />
    </filter>
  </defs>
  <sodipodi:namedview
     pagecolor="#ffffff"
     bordercolor="#666666"
     borderopacity="1"
     objecttolerance="10"
     gridtolerance="10"
     guidetolerance="10"
     inkscape:pageopacity="0"
     inkscape:pageshadow="2"
     inkscape:window-width="1920"
     inkscape:window-height="1001"
     id="namedview5"
     showgrid="false"
     inkscape:zoom="14.561404"
     inkscape:cx="15.750914"
     inkscape:cy="28.5"
     inkscape:window-x="-9"
     inkscape:window-y="-9"
     inkscape:window-maximized="1"
     inkscape:current-layer="svg3" />
  <!-- Generated by Pixelmator Pro 2.1.4 -->
  <path
     id="Path"
     d="M0 15.28 Q0 0.4 23 0.4 L32.44 0.4 C35.08 0.4 36.44 1.52 36.44 3.68 36.44 5.84 35.12 7 32.48 7 L23.12 7 C13.44 7 8.64 9.84 8.64 15.44 L8.64 25.12 56.08 25.12 C58.72 25.12 60 26.24 60 28.4 60 30.56 58.72 31.68 56.08 31.68 L8.64 31.68 8.64 52.8 C8.64 55.04 7.12 56.16 4.32 56.16 1.52 56.16 0 55 0 52.8 Z"
     fill="#000000"
     fill-opacity="1"
     stroke="none"
     style="fill:#4d4d4d" />
  <path
     style="fill:#008000;stroke-width:0.0686747"
     d="M 3.0459973,56.038037 C 1.7715893,55.809427 0.82144625,55.212912 0.39115255,54.371284 0.04202792,53.688417 0.05951868,54.775488 0.05864642,33.705626 0.05776823,12.492485 0.04300751,13.437218 0.40095618,11.79669 1.6878187,5.8988256 6.6704755,2.2451873 15.166265,0.96971607 c 3.07578,-0.46176618 4.427041,-0.5219071 11.743374,-0.52266519 5.90675,-6.119e-4 6.462579,0.009083 6.939116,0.12104115 1.790153,0.42057903 2.607838,1.50387227 2.522423,3.34178357 -0.06777,1.4583375 -0.73023,2.3527908 -2.074379,2.8008448 L 33.742771,6.895398 27.390361,6.941143 C 20.081475,6.9937751 19.066928,7.0492644 16.642771,7.5289672 12.511917,8.3463987 9.8802485,10.198684 8.9935847,12.912805 8.6240928,14.043837 8.6268419,13.996807 8.5932901,19.760294 l -0.031278,5.372945 24.2650779,0.01802 24.265079,0.01802 0.525643,0.150024 c 1.625742,0.464004 2.324357,1.389042 2.324357,3.077687 0,1.698024 -0.68924,2.601086 -2.369277,3.104293 -0.392673,0.117614 -1.554363,0.124265 -24.704903,0.141435 L 8.5751351,31.660738 8.5571461,42.699347 8.5391571,53.737956 8.3788161,54.13521 C 8.0451635,54.961856 7.1733375,55.643065 6.066868,55.94167 5.5859343,56.07146 3.587667,56.135209 3.0459978,56.03804 Z"
     id="path11" />
  <path
     style="fill:#008000;stroke-width:0.0686747"
     d="M 2.6126478,55.904317 C 1.9344011,55.720357 1.3312319,55.389933 0.90661036,54.969727 0.4092798,54.477569 0.26477219,54.15698 0.18475464,53.368294 0.08830912,52.417687 0.091299,14.918559 0.18792838,13.563253 0.38281892,10.829754 1.475544,8.2515171 3.2564265,6.3232662 5.9097625,3.4503658 10.17476,1.6514576 16.196386,0.86539701 18.684412,0.5406111 19.348382,0.51858039 26.703614,0.51676433 l 6.901808,-0.001704 0.583735,0.19250741 c 1.012013,0.33374746 1.658757,0.89899146 1.961102,1.71397096 0.203951,0.5497553 0.18871,2.0609812 -0.02624,2.60219 -0.317792,0.8001347 -0.821684,1.2586506 -1.790485,1.6292474 L 33.811449,6.8526903 28.48916,6.8978093 C 20.745396,6.9634568 19.025453,7.041811 17.054819,7.4187148 12.977428,8.1985579 10.451129,9.7288458 9.2918409,12.121084 8.6252074,13.49671 8.5893468,13.902716 8.5543227,20.471121 l -0.02475,4.641602 3.9535873,0.04538 c 2.174473,0.02496 13.105528,0.04541 24.291232,0.04544 l 20.337646,6.5e-5 0.470788,0.145171 c 1.242671,0.383183 1.829542,0.88528 2.151365,1.840596 0.205915,0.611248 0.205068,1.806478 -0.0017,2.420303 -0.30259,0.898222 -0.842034,1.38262 -2.022236,1.815877 -0.330004,0.121146 -1.29171,0.127477 -24.700003,0.162596 -13.396147,0.0201 -24.3823813,0.06229 -24.4138549,0.09375 -0.031474,0.03147 -0.067403,5.019006 -0.079841,11.083421 L 8.4939233,53.791541 8.313221,54.176795 c -0.2317874,0.494164 -0.8369509,1.102919 -1.3576631,1.365718 -0.7596615,0.383395 -1.0501858,0.437844 -2.5025486,0.469009 -1.1777211,0.02527 -1.3995772,0.01235 -1.8403643,-0.107205 z"
     id="path13" />
  <path
     style="fill:#800000;stroke-width:0.0686747"
     d="M 2.5301205,55.88244 C 1.8310031,55.667976 1.3279548,55.384919 0.90661036,54.96892 0.41034357,54.47895 0.26501493,54.157205 0.18362396,53.368294 0.08749912,52.43657 0.08748902,14.930412 0.18361326,13.59759 0.39374921,10.683925 1.510277,8.139475 3.4713574,6.1051651 4.5707743,4.9646944 5.7877251,4.1074906 7.5090361,3.2610782 9.9304188,2.0704229 12.580803,1.3390697 16.196386,0.86387095 18.644176,0.54215593 19.34762,0.51892895 26.703614,0.51693298 l 6.901808,-0.001873 0.600679,0.19689283 c 0.710568,0.23291273 1.220981,0.56964659 1.576997,1.04038919 0.376268,0.4975204 0.477643,0.8429512 0.517107,1.7620049 0.02924,0.6810353 0.01295,0.872393 -0.10825,1.2714166 -0.247277,0.8141075 -0.66145,1.3064062 -1.419063,1.6867446 -0.792176,0.3976895 -0.554921,0.3833476 -7.657229,0.4628733 -3.607139,0.04039 -6.929277,0.1033691 -7.38253,0.1399541 -4.201043,0.3390937 -7.319153,1.4505985 -9.139911,3.2580815 -0.8261837,0.820161 -1.2797169,1.543701 -1.6357286,2.609542 -0.3355192,1.00449 -0.3423668,1.155994 -0.4100807,9.073289 l -0.026482,3.096368 4.0207283,0.0455 c 2.211401,0.02503 13.1444,0.0455 24.295553,0.0455 h 20.274826 l 0.470788,0.145171 c 1.246096,0.384239 1.82937,0.88477 2.154006,1.848437 0.208615,0.619264 0.208615,1.780268 0,2.399532 -0.276583,0.821024 -0.630454,1.192178 -1.555521,1.631491 -0.521876,0.247837 -0.533762,0.249907 -1.734418,0.302091 -0.664917,0.0289 -11.690574,0.06211 -24.50146,0.0738 -12.810884,0.01169 -23.3162613,0.045 -23.3452812,0.07402 -0.02902,0.02902 -0.065803,5.019796 -0.081742,11.090615 l -0.028978,11.037851 -0.1765578,0.37771 c -0.2266822,0.484942 -0.8368596,1.095507 -1.3573135,1.358176 -0.7651158,0.386148 -1.0469706,0.438291 -2.536886,0.469323 -1.2837761,0.02674 -1.4071382,0.01829 -1.8885542,-0.129396 z"
     id="path15" />
  <path
     style="fill:#20c1f0;stroke-width:0;stroke-miterlimit:4;stroke-dasharray:none;filter:url(#filter850);fill-opacity:1;stroke:none"
     d="M 2.3545618,55.779276 C 1.3755042,55.43164 0.72842911,54.893906 0.38741109,54.144529 0.23421294,53.807881 0.23342696,53.787118 0.17574898,48.553012 0.14390786,45.663524 0.13434798,36.624217 0.15450479,28.465663 0.19473465,12.182467 0.17517314,12.919642 0.61058743,11.278205 1.111724,9.3890057 2.0019303,7.7685314 3.3312222,6.3257376 4.3990504,5.1667324 5.5179956,4.3433805 7.2052028,3.4751514 9.7348587,2.1734024 12.425552,1.4047706 16.230723,0.89689304 18.350569,0.61395653 18.69038,0.60283661 26.222892,0.56991197 l 7.38253,-0.0322691 0.5751,0.21021896 C 35.18032,1.113322 35.712864,1.5550174 36.059229,2.306073 36.199451,2.6101288 36.21506,2.7479852 36.21506,3.6823233 v 1.0383474 l -0.274699,0.540561 c -0.227537,0.4477566 -0.347512,0.5954945 -0.698817,0.860534 -0.678956,0.5122319 -1.007098,0.6025687 -2.451191,0.6748065 -0.684845,0.034258 -3.053034,0.082011 -5.262642,0.1061187 -8.239771,0.089898 -9.549418,0.1804673 -11.999633,0.8298446 -2.230557,0.5911615 -3.766022,1.41401 -5.031692,2.6964595 -0.9966544,1.009867 -1.528943,1.989134 -1.7596427,3.23727 -0.1067493,0.577534 -0.2246418,5.278787 -0.2292004,9.139919 l -0.00272,2.306787 1.6593141,0.04532 c 0.912622,0.02493 11.835789,0.04532 24.273704,0.04532 h 22.614392 l 0.658655,0.235413 c 1.085973,0.388141 1.572117,0.779762 1.891585,1.523796 0.219467,0.511136 0.309808,1.34556 0.216849,2.002895 -0.153069,1.082383 -0.594544,1.699145 -1.556443,2.174429 -0.439898,0.217357 -0.623887,0.266287 -1.188944,0.316186 -0.36768,0.03247 -10.619473,0.07669 -22.781762,0.09826 -12.162289,0.02157 -22.921195,0.05731 -23.90868,0.07942 l -1.7954275,0.04019 -0.039942,1.38308 c -0.021968,0.760694 -0.054225,5.748223 -0.071681,11.083397 l -0.031739,9.700317 -0.1931332,0.355909 c -0.3874668,0.714031 -1.124805,1.313117 -1.944338,1.579772 -0.3836815,0.124839 -0.653791,0.149021 -1.9228916,0.172146 l -1.476506,0.0269 z"
     id="path17" />
</svg>
