<?xml version="1.0" encoding="UTF-8"?>
<svg width="60px" height="57px" viewBox="0 0 60 57" xmlns="http://www.w3.org/2000/svg" xmlns:xlink="http://www.w3.org/1999/xlink" version="1.1">
 <!-- Generated by Pixelmator Pro 2.1.4 -->
 <path id="Path" d="M0 15.28 Q0 0.4 23 0.4 L32.44 0.4 C35.08 0.4 36.44 1.52 36.44 3.68 36.44 5.84 35.12 7 32.48 7 L23.12 7 C13.44 7 8.64 9.84 8.64 15.44 L8.64 25.12 56.08 25.12 C58.72 25.12 60 26.24 60 28.4 60 30.56 58.72 31.68 56.08 31.68 L8.64 31.68 8.64 52.8 C8.64 55.04 7.12 56.16 4.32 56.16 1.52 56.16 0 55 0 52.8 Z" fill="#000000" fill-opacity="1" stroke="none"/>
</svg>
