<?xml version="1.0" encoding="utf-8"?>

<svg version="1.1" id="Icons" xmlns="http://www.w3.org/2000/svg" xmlns:xlink="http://www.w3.org/1999/xlink" x="0px" y="0px"
	 viewBox="0 0 32 32" style="enable-background:new 0 0 32 32;" xml:space="preserve">
<g>
	<path d="M19.5,28C19.5,28,19.5,28,19.5,28c-1,0-1.8-0.4-2.5-1l-9.3-9.4c-0.9-0.9-0.9-2.3,0-3.1l9.3-9.4c0.7-0.7,1.6-1,2.5-1
		c0,0,0,0,0,0c1,0,1.8,0.4,2.5,1c1.4,1.4,1.4,3.6,0,5l-5.7,5.8c-0.1,0.1-0.1,0.2,0,0.3l5.7,5.8c1.4,1.4,1.4,3.6,0,5
		C21.3,27.6,20.4,28,19.5,28z M8.3,15.1L8.3,15.1L8.3,15.1z"/>
</g>
</svg>
