<?xml version="1.0" encoding="iso-8859-1"?>
<!-- Generator: Adobe Illustrator 19.0.0, SVG Export Plug-In . SVG Version: 6.00 Build 0)  -->
<svg version="1.1" id="Layer_1" xmlns="http://www.w3.org/2000/svg" xmlns:xlink="http://www.w3.org/1999/xlink" x="0px" y="0px"
	 viewBox="0 0 392.533 392.533" style="enable-background:new 0 0 392.533 392.533;" xml:space="preserve">
<g>
	<g>
		<path d="M310.238,71.499H268.8V50.424c0-6.012-4.848-10.925-10.925-10.925h-15.192L222.901,5.43
			c-1.939-3.297-5.56-5.43-9.438-5.43h-34.327c-3.879,0-7.499,2.069-9.438,5.43l-19.782,34.004h-15.127
			c-6.012,0-10.925,4.849-10.925,10.925v21.075H82.359c-17.067,0-30.901,13.834-30.901,30.901v259.297
			c0,17.067,13.834,30.901,30.901,30.901h227.814c17.067,0,30.901-13.834,30.901-30.901V102.4
			C341.139,85.333,327.305,71.499,310.238,71.499z M185.406,21.786h21.721l10.279,17.648h-42.279L185.406,21.786z M145.713,61.285
			h101.301v35.943H145.713V61.285z M319.418,361.632h-0.065c0,5.042-4.073,9.115-9.115,9.115H82.424
			c-5.042,0-9.115-4.073-9.115-9.115V102.4c0-5.042,4.073-9.115,9.115-9.115h41.503v14.804c0,6.012,4.849,10.925,10.925,10.925
			h123.087c6.012,0,10.925-4.848,10.925-10.925V93.285h41.438c5.042,0,9.115,4.073,9.115,9.115V361.632z"/>
	</g>
</g>
<g>
	<g>
		<path d="M290.198,141.511h-62.966c-6.012,0-10.925,4.848-10.925,10.925v71.628c0,6.012,4.849,10.925,10.925,10.925h62.966
			c6.012,0,10.925-4.848,10.925-10.925v-71.693C301.123,146.424,296.275,141.511,290.198,141.511z M279.337,213.269h-41.18v-49.907
			h41.18V213.269z"/>
	</g>
</g>
<g>
	<g>
		<path d="M187.281,155.475h-84.816c-6.012,0-10.925,4.849-10.925,10.925c0,6.077,4.849,10.925,10.925,10.925h84.816
			c6.012,0,10.925-4.849,10.925-10.925C198.206,160.388,193.357,155.475,187.281,155.475z"/>
	</g>
</g>
<g>
	<g>
		<path d="M187.281,213.204h-84.816c-6.012,0-10.925,4.849-10.925,10.925c0,6.077,4.849,10.925,10.925,10.925h84.816
			c6.012,0,10.925-4.849,10.925-10.925C198.206,218.117,193.357,213.204,187.281,213.204z"/>
	</g>
</g>
<g>
	<g>
		<path d="M290.198,270.933H102.465c-6.012,0-10.925,4.848-10.925,10.925c0,6.012,4.849,10.925,10.925,10.925h187.863
			c6.012,0,10.925-4.849,10.925-10.925C301.123,275.846,296.275,270.933,290.198,270.933z"/>
	</g>
</g>
<g>
	<g>
		<path d="M290.198,328.663H102.465c-6.012,0-10.925,4.849-10.925,10.925s4.849,10.925,10.925,10.925h187.863
			c6.012,0,10.925-4.848,10.925-10.925C301.123,333.511,296.275,328.663,290.198,328.663z"/>
	</g>
</g>
<g>
</g>
<g>
</g>
<g>
</g>
<g>
</g>
<g>
</g>
<g>
</g>
<g>
</g>
<g>
</g>
<g>
</g>
<g>
</g>
<g>
</g>
<g>
</g>
<g>
</g>
<g>
</g>
<g>
</g>
</svg>
